<svg width="19" height="19" viewBox="0 0 19 19" fill="none" xmlns="http://www.w3.org/2000/svg">
<path d="M11.5013 0.5C7.64359 0.5 4.50257 3.6409 4.50257 7.49844C4.50257 9.17457 5.09046 10.7107 6.07728 11.9166L0.5 17.4922L1.50712 18.5L7.08369 12.9229C8.32914 13.944 9.89078 14.5004 11.5013 14.4969C15.359 14.4969 18.5 11.356 18.5 7.49844C18.5 3.6409 15.359 0.5 11.5013 0.5ZM11.5013 1.89969C14.6017 1.89969 17.1003 4.39813 17.1003 7.49844C17.1003 10.5988 14.6017 13.0972 11.5013 13.0972C8.40085 13.0972 5.90231 10.5988 5.90231 7.49844C5.90231 4.39813 8.40085 1.89969 11.5013 1.89969Z" fill="#2563EB"/>
</svg>
